<?xml version="1.0" encoding="UTF-8"?>
<svg id="Livello_1" xmlns="http://www.w3.org/2000/svg" version="1.1" viewBox="0 0 760.51 200.82">
  <!-- Generator: Adobe Illustrator 29.5.1, SVG Export Plug-In . SVG Version: 2.1.0 Build 141)  -->
  <defs>
    <style>
      .st0 {
        fill-rule: evenodd;
      }

      .st0, .st1 {
        fill: #5d5aa4;
      }
    </style>
  </defs>
  <g id="New_Layer">
    <path class="st0" d="M92.7,4.88c-5.89,2.15-10.53,5.39-13.6,9.53-6.31,8.54-7.63,17.25-4.48,28.45.41,1.41-2.32,4.56-14.92,17.01-8.46,8.38-15.67,15.26-16.01,15.26s-3.15-.75-6.31-1.58c-4.9-1.41-6.39-1.49-10.95-.75-13.35,2.32-22.31,11.03-24.38,23.81-1.99,12.53,4.65,24.79,16.42,30.35,5.31,2.57,13.68,3.07,20.32,1.32l5.14-1.32,15.92,15.59,15.84,15.51-1.32,2.49c-2.24,3.9-1.9,17.09.41,22.15,2.49,5.48,8.46,11.53,14.09,14.35,4.31,2.15,5.72,2.41,12.69,2.49,6.97,0,8.46-.25,12.6-2.32,6.14-2.98,12.44-9.87,14.77-16.18,1.49-3.82,1.74-5.97,1.49-11.36-.58-11.11-6.39-19.82-16.09-24.55l-5.31-2.49V61.03l4.07-1.49c5.8-2.07,11.94-7.88,15.18-14.51,2.49-4.97,2.73-6.22,2.73-12.6,0-8.63-2.41-14.51-8.29-20.32-7.63-7.71-20.23-10.7-30.02-7.22h0ZM90.63,59.37l3.48,1.49v81.77l-3.9,1.74-3.9,1.74-15.51-15.51-15.51-15.51,1.74-3.82c2.24-4.9,2.41-14.6.34-19.99l-1.41-3.73,15.18-15.18c8.29-8.29,15.26-15.01,15.51-14.84s1.99,1,3.98,1.83h0Z"/>
  </g>
  <g id="MasterLayer_1">
    <g>
      <path class="st1" d="M201.01,56.2c22.04,0,39,16.64,39,38.15s-16.96,38.15-39,38.15-39-16.64-39-38.15,16.96-38.15,39-38.15ZM201.01,118.62c13.25,0,23.31-10.6,23.31-24.27s-10.07-24.27-23.31-24.27-23.31,10.6-23.31,24.27,10.17,24.27,23.31,24.27Z"/>
      <path class="st1" d="M245.09,76.76h14.31v6.46c4.24-4.66,10.17-7.52,17.38-7.52,14.94,0,26.28,12.29,26.28,28.4s-11.34,28.4-26.28,28.4c-7.21,0-13.14-2.86-17.38-7.52v27.66h-14.31v-75.88ZM273.81,119.36c8.27,0,14.41-6.46,14.41-15.26s-6.15-15.26-14.41-15.26-14.41,6.57-14.41,15.26,6.25,15.26,14.41,15.26Z"/>
      <path class="st1" d="M334.53,75.7c18.33,0,31.16,15.26,28.19,33.49h-42.18c1.91,6.46,7.42,11.02,14.94,11.02,5.93,0,10.92-2.86,13.56-7.63l11.76,5.3c-4.77,8.58-13.88,14.62-25.75,14.62-16.64,0-29.25-12.29-29.25-28.4s12.4-28.4,28.72-28.4h0ZM348.41,98.27c-1.91-6.15-7.1-10.28-13.88-10.28s-11.76,4.13-13.78,10.28h27.66Z"/>
      <path class="st1" d="M368.33,76.76h14.31v7.1c3.82-4.98,9.86-8.16,17.06-8.16,13.14,0,22.04,9.54,22.04,22.57v33.17h-14.31v-30.63c0-7.1-5.09-12.08-12.4-12.08s-12.4,4.98-12.4,12.08v30.63h-14.31v-54.68h0Z"/>
      <path class="st1" d="M449.71,70.72h-22.68v-13.46h60.62v13.46h-22.78v60.72h-15.15v-60.72h-.01Z"/>
      <path class="st1" d="M501.32,99.22l8.9-.85c3.39-.21,5.09-1.48,5.09-4.34,0-4.03-3.82-6.57-8.9-6.57-5.72,0-9.43,3.07-10.39,8.27l-14.2-3.18c1.48-9.43,10.49-16.85,24.48-16.85,13.25,0,23.31,6.78,23.31,21.19v34.55h-14.31v-6.68c-3.82,4.56-9.96,7.74-17.27,7.74-10.17,0-17.8-6.04-17.8-15.68,0-12.5,10.92-16.53,21.09-17.59h0ZM501.53,121.16c7.52,0,13.78-6.04,13.78-12.61v-1.17c-.95.74-2.54,1.06-4.88,1.38l-9.22,1.06c-4.13.53-6.68,2.65-6.68,5.83s2.65,5.51,6.99,5.51h.01Z"/>
      <path class="st1" d="M536.28,53.02h14.31v78.42h-14.31V53.02Z"/>
      <path class="st1" d="M584.39,75.7c18.33,0,31.16,15.26,28.19,33.49h-42.18c1.91,6.46,7.42,11.02,14.94,11.02,5.93,0,10.92-2.86,13.56-7.63l11.76,5.3c-4.77,8.58-13.88,14.62-25.75,14.62-16.64,0-29.25-12.29-29.25-28.4s12.4-28.4,28.72-28.4h.01ZM598.28,98.27c-1.91-6.15-7.1-10.28-13.88-10.28s-11.76,4.13-13.78,10.28h27.66Z"/>
      <path class="st1" d="M618.19,76.76h14.31v7.1c3.82-4.98,9.86-8.16,17.06-8.16,13.14,0,22.04,9.54,22.04,22.57v33.17h-14.31v-30.63c0-7.1-5.09-12.08-12.4-12.08s-12.4,4.98-12.4,12.08v30.63h-14.31v-54.68h.01Z"/>
      <path class="st1" d="M671.49,76.76h11.02v-16.11l14.31-4.45v20.56h14.2v12.61h-14.2v21.72c0,5.3,2.44,7.74,7.74,7.74h6.46v12.61h-6.46c-15.05,0-22.04-6.99-22.04-21.19v-20.88h-11.02v-12.61h-.01Z"/>
      <path class="st1" d="M736.45,121.16c5.93,0,9.64-2.54,9.64-5.72,0-10.28-32.11-.64-32.11-22.47,0-9.86,9.64-17.27,22.47-17.27s21.72,6.25,23.31,15.79l-14.2,2.97c-.74-4.98-4.03-7.42-9.11-7.42-4.56,0-8.05,2.12-8.05,5.3,0,10.38,32.11.74,32.11,22.89,0,9.86-10.7,17.27-24.06,17.27s-22.47-6.25-24.06-15.79l14.31-2.97c.64,4.98,4.13,7.42,9.75,7.42Z"/>
    </g>
  </g>
</svg>