<?xml version="1.0" encoding="UTF-8"?>
<svg id="Livello_1" data-name="Livello 1" xmlns="http://www.w3.org/2000/svg" viewBox="0 0 841.89 595.28">
  <defs>
    <style>
      .cls-1 {
        fill-rule: evenodd;
      }

      .cls-1, .cls-2 {
        fill: #5d5aa4;
      }
    </style>
  </defs>
  <g id="New_Layer" data-name="New Layer">
    <path class="cls-1" d="M129.03,199.76c-5.97,2.18-10.67,5.46-13.78,9.66-6.39,8.65-7.73,17.48-4.54,28.82.42,1.43-2.35,4.62-15.12,17.23-8.57,8.49-15.88,15.46-16.22,15.46s-3.19-.76-6.39-1.6c-4.96-1.43-6.47-1.51-11.09-.76-13.53,2.35-22.6,11.18-24.7,24.12-2.02,12.69,4.71,25.12,16.64,30.75,5.38,2.6,13.86,3.11,20.59,1.34l5.21-1.34,16.13,15.8,16.05,15.71-1.34,2.52c-2.27,3.95-1.93,17.31.42,22.44,2.52,5.55,8.57,11.68,14.28,14.54,4.37,2.18,5.8,2.44,12.86,2.52,7.06,0,8.57-.25,12.77-2.35,6.22-3.02,12.6-10,14.96-16.39,1.51-3.87,1.76-6.05,1.51-11.51-.59-11.26-6.47-20.08-16.3-24.87l-5.38-2.52v-82.68l4.12-1.51c5.88-2.1,12.1-7.98,15.38-14.7,2.52-5.04,2.77-6.3,2.77-12.77,0-8.74-2.44-14.7-8.4-20.59-7.73-7.81-20.5-10.84-30.42-7.31h-.01ZM126.93,254.97l3.53,1.51v82.85l-3.95,1.76-3.95,1.76-15.71-15.71-15.71-15.71,1.76-3.87c2.27-4.96,2.44-14.79.34-20.25l-1.43-3.78,15.38-15.38c8.4-8.4,15.46-15.21,15.71-15.04s2.02,1.01,4.03,1.85h0Z"/>
  </g>
  <g id="MasterLayer_1" data-name="MasterLayer 1">
    <g>
      <path class="cls-2" d="M237.84,252.35c22.04,0,39,16.64,39,38.15s-16.96,38.15-39,38.15-39-16.64-39-38.15,16.96-38.15,39-38.15ZM237.84,314.77c13.25,0,23.31-10.6,23.31-24.27s-10.07-24.27-23.31-24.27-23.31,10.6-23.31,24.27,10.17,24.27,23.31,24.27Z"/>
      <path class="cls-2" d="M281.92,272.91h14.31v6.46c4.24-4.66,10.17-7.52,17.38-7.52,14.94,0,26.28,12.29,26.28,28.4s-11.34,28.4-26.28,28.4c-7.21,0-13.14-2.86-17.38-7.52v27.66h-14.31v-75.88ZM310.64,315.51c8.27,0,14.41-6.46,14.41-15.26s-6.15-15.26-14.41-15.26-14.41,6.57-14.41,15.26,6.25,15.26,14.41,15.26Z"/>
      <path class="cls-2" d="M371.36,271.85c18.33,0,31.16,15.26,28.19,33.49h-42.18c1.91,6.46,7.42,11.02,14.94,11.02,5.93,0,10.92-2.86,13.56-7.63l11.76,5.3c-4.77,8.58-13.88,14.62-25.75,14.62-16.64,0-29.25-12.29-29.25-28.4s12.4-28.4,28.72-28.4h0ZM385.24,294.42c-1.91-6.15-7.1-10.28-13.88-10.28s-11.76,4.13-13.78,10.28h27.66Z"/>
      <path class="cls-2" d="M405.16,272.91h14.31v7.1c3.82-4.98,9.86-8.16,17.06-8.16,13.14,0,22.04,9.54,22.04,22.57v33.17h-14.31v-30.63c0-7.1-5.09-12.08-12.4-12.08s-12.4,4.98-12.4,12.08v30.63h-14.31v-54.68h0Z"/>
      <path class="cls-2" d="M486.54,266.87h-22.68v-13.46h60.62v13.46h-22.78v60.72h-15.15v-60.72h-.01Z"/>
      <path class="cls-2" d="M538.15,295.37l8.9-.85c3.39-.21,5.09-1.48,5.09-4.34,0-4.03-3.82-6.57-8.9-6.57-5.72,0-9.43,3.07-10.39,8.27l-14.2-3.18c1.48-9.43,10.49-16.85,24.48-16.85,13.25,0,23.31,6.78,23.31,21.19v34.55h-14.31v-6.68c-3.82,4.56-9.96,7.74-17.27,7.74-10.17,0-17.8-6.04-17.8-15.68,0-12.5,10.92-16.53,21.09-17.59h0ZM538.36,317.31c7.52,0,13.78-6.04,13.78-12.61v-1.17c-.95.74-2.54,1.06-4.88,1.38l-9.22,1.06c-4.13.53-6.68,2.65-6.68,5.83s2.65,5.51,6.99,5.51h0Z"/>
      <path class="cls-2" d="M573.11,249.17h14.31v78.42h-14.31v-78.42Z"/>
      <path class="cls-2" d="M621.22,271.85c18.33,0,31.16,15.26,28.19,33.49h-42.18c1.91,6.46,7.42,11.02,14.94,11.02,5.93,0,10.92-2.86,13.56-7.63l11.76,5.3c-4.77,8.58-13.88,14.62-25.75,14.62-16.64,0-29.25-12.29-29.25-28.4s12.4-28.4,28.72-28.4h.01ZM635.11,294.42c-1.91-6.15-7.1-10.28-13.88-10.28s-11.76,4.13-13.78,10.28h27.66Z"/>
      <path class="cls-2" d="M655.02,272.91h14.31v7.1c3.82-4.98,9.86-8.16,17.06-8.16,13.14,0,22.04,9.54,22.04,22.57v33.17h-14.31v-30.63c0-7.1-5.09-12.08-12.4-12.08s-12.4,4.98-12.4,12.08v30.63h-14.31v-54.68h.01Z"/>
      <path class="cls-2" d="M708.32,272.91h11.02v-16.11l14.31-4.45v20.56h14.2v12.61h-14.2v21.72c0,5.3,2.44,7.74,7.74,7.74h6.46v12.61h-6.46c-15.05,0-22.04-6.99-22.04-21.19v-20.88h-11.02v-12.61h-.01Z"/>
      <path class="cls-2" d="M773.28,317.31c5.93,0,9.64-2.54,9.64-5.72,0-10.28-32.11-.64-32.11-22.47,0-9.86,9.64-17.27,22.47-17.27s21.72,6.25,23.31,15.79l-14.2,2.97c-.74-4.98-4.03-7.42-9.11-7.42-4.56,0-8.05,2.12-8.05,5.3,0,10.38,32.11.74,32.11,22.89,0,9.86-10.7,17.27-24.06,17.27s-22.47-6.25-24.06-15.79l14.31-2.97c.64,4.98,4.13,7.42,9.75,7.42Z"/>
    </g>
  </g>
</svg>