<svg xmlns="http://www.w3.org/2000/svg" viewBox="0 0 24 24" fill="currentColor">
  <path d="M7.42 10.05c-.18-.16-.46-.23-.84-.23H6v6.07h.58c.44 0 .8-.11 1.05-.35.26-.24.38-.59.38-1.04v-3.45c0-.43-.13-.76-.38-.98l-.21-.02m13.37-7.27L12 3.36 3.21 2.78A1.24 1.24 0 0 0 2 4v16c0 .57.37 1.07.9 1.22l8.89 2.56a1.24 1.24 0 0 0 1.42-1.22V4.36l.03-.01 8.55.58a1.24 1.24 0 0 0 .21-2.47zM8.5 15.64c-.4.39-.98.59-1.75.59H5.5V9.15h1.14c.83 0 1.46.22 1.87.66.4.44.61 1.1.61 1.97v1.89c0 .86-.2 1.52-.62 1.97M11 18h-1v-7h1v7zm3.22-2.39c0 .47-.16.84-.47 1.11-.31.27-.72.41-1.22.41-.53 0-.96-.14-1.27-.41a1.33 1.33 0 0 1-.48-1.08v-.17h.91v.1c0 .2.06.38.18.52.13.14.3.21.53.21.22 0 .4-.06.53-.19.13-.13.19-.3.19-.52 0-.44-.36-.76-1.09-1.06-.72-.3-1.19-.55-1.42-.75a1.57 1.57 0 0 1-.48-1.2c0-.47.15-.85.46-1.12.31-.27.72-.41 1.24-.41.53 0 .95.13 1.25.4.31.27.46.64.46 1.11v.14h-.91v-.08c0-.2-.06-.36-.17-.49a.62.62 0 0 0-.49-.19c-.2 0-.36.06-.48.18a.63.63 0 0 0-.18.46c0 .17.06.31.17.42.11.11.33.24.68.39l.5.21c.47.2.8.43 1 .7.2.27.3.6.3 1.01z"/>
</svg>
